<svg xmlns="http://www.w3.org/2000/svg" viewBox="0 0 438.86 512"><title>help-question-mark</title><path d="M390.1,0H48.76A48.91,48.91,0,0,0,0,48.76V390.1a48.91,48.91,0,0,0,48.76,48.76h97.52L219.43,512l73.14-73.14H390.1a48.91,48.91,0,0,0,48.76-48.76V48.76A48.91,48.91,0,0,0,390.1,0ZM243.81,390.1H195V341.33h48.76V390.1ZM295,202.36L273.07,224.3c-19.5,17.07-29.26,31.7-29.26,68.27H195V280.38c0-26.82,9.75-51.2,29.26-68.27l29.26-31.7c9.75-7.31,14.63-19.5,14.63-34.13a48.76,48.76,0,1,0-97.52,0H121.91c0-53.64,43.89-97.52,97.52-97.52S317,92.65,317,146.29C317,168.23,307.2,187.73,295,202.36Z" style="fill:#ba9c54"/></svg>