<svg xmlns="http://www.w3.org/2000/svg" viewBox="0 0 449.5 129.85"><title>logo</title><path d="M181.5,118.85V9a7,7,0,0,1,7-7h0V0h-32V2h0a8,8,0,0,1,8,8V117.85a10,10,0,0,1-10,10h0v2h36v-2h0a9,9,0,0,1-9-9h0Z" transform="translate(0 0)" style="fill:#ba9c54"/><path d="M111,0V2a12,12,0,0,1,10.67,17.34l-42.86,84.8L30.24,13.29A7.67,7.67,0,0,1,37,2h0V0H0V2H0A12.2,12.2,0,0,1,10.93,8.77L70.79,129.25a1.08,1.08,0,0,0,1.93,0L138.55,4.68A5,5,0,0,1,143,2V0H111Z" transform="translate(0 0)" style="fill:#ba9c54"/><path d="M311.5,0V2a12,12,0,0,1,10.67,17.34l-42.86,84.8L230.74,13.29A7.67,7.67,0,0,1,237.5,2h0V0h-37V2h0a12.2,12.2,0,0,1,10.93,6.77l59.86,120.48a1.08,1.08,0,0,0,1.93,0L339,4.68A5,5,0,0,1,343.5,2V0h-32Z" transform="translate(0 0)" style="fill:#ba9c54"/><path d="M338.5,129.85v-2a12,12,0,0,1-10.67-17.34l42.86-84.8,48.57,90.85a7.67,7.67,0,0,1-6.76,11.29h0v2h37v-2h0a12.2,12.2,0,0,1-10.93-6.77L378.71,0.6a1.08,1.08,0,0,0-1.93,0L311,125.17a5,5,0,0,1-4.45,2.68v2h32Z" transform="translate(0 0)" style="fill:#ba9c54"/></svg>