<svg xmlns="http://www.w3.org/2000/svg" viewBox="0 0 15.3 20"><title>варианты</title><path fill="#ba9c54" d="M12.88,2.06A7.65,7.65,0,1,0,3.24,13.91a0.54,0.54,0,0,1,.24.44v1.81a2.1,2.1,0,0,0,1.79,2.07V19h0a1,1,0,0,0,1,.95H9.09A1,1,0,0,0,10,19V18.22a2.1,2.1,0,0,0,1.79-2.07v-1.8a0.54,0.54,0,0,1,.23-0.43A7.66,7.66,0,0,0,12.88,2.06ZM11.24,8.41l0.61,0.51a0.66,0.66,0,0,1,.15.84l-0.37.63a0.66,0.66,0,0,1-.8.29l-0.74-.27a3.65,3.65,0,0,1-1.27.73l-0.14.78a0.66,0.66,0,0,1-.66.55H7.3a0.66,0.66,0,0,1-.65-0.55L6.5,11.14h0a3.65,3.65,0,0,1-1.27-.73l-0.74.27a0.66,0.66,0,0,1-.8-0.29L3.33,9.75a0.66,0.66,0,0,1,.15-0.84l0.61-.51a3.69,3.69,0,0,1,0-1.47L3.48,6.43a0.66,0.66,0,0,1-.15-0.84L3.69,5a0.66,0.66,0,0,1,.8-0.29L5.24,4.93A3.65,3.65,0,0,1,6.51,4.2l0.14-.78A0.66,0.66,0,0,1,7.3,2.87H8a0.66,0.66,0,0,1,.65.55L8.82,4.2a3.65,3.65,0,0,1,1.27.73l0.74-.27a0.66,0.66,0,0,1,.8.29L12,5.59a0.66,0.66,0,0,1-.15.84l-0.61.51A3.69,3.69,0,0,1,11.24,8.41Z" transform="translate(0 0)"/><circle fill="#ba9c54" cx="7.66" cy="7.67" r="1.38"/></svg>