<svg xmlns="http://www.w3.org/2000/svg" viewBox="0 0 24.29 20"><title>монтаж</title><path fill="#ba9c54" d="M4.32,2.55V0.83A0.81,0.81,0,0,0,3.53,0h0a0.81,0.81,0,0,0-.8.82h0V2.55a3.5,3.5,0,0,0,0,6.81v9.82a0.81,0.81,0,1,0,1.62,0s0,0,0,0V9.36A3.5,3.5,0,0,0,4.32,2.55ZM3.51,7.84A1.89,1.89,0,1,1,5.4,6,1.88,1.88,0,0,1,3.51,7.84Z" transform="translate(0 0)"/><path fill="#ba9c54" d="M13,10.64V0.83A0.81,0.81,0,0,0,12.16,0h0a0.81,0.81,0,0,0-.8.82h0v9.82a3.5,3.5,0,0,0,0,6.81v1.72a0.81,0.81,0,1,0,1.62,0s0,0,0,0V17.46A3.5,3.5,0,0,0,13,10.64Zm-0.81,5.3A1.89,1.89,0,1,1,14,14.05,1.88,1.88,0,0,1,12.14,15.94Z" transform="translate(0 0)"/><path fill="#ba9c54" d="M21.59,6.6V0.83A0.81,0.81,0,0,0,20.8,0h0a0.81,0.81,0,0,0-.8.82h0V6.6a3.5,3.5,0,0,0,0,6.81v5.77a0.81,0.81,0,0,0,1.62,0s0,0,0,0V13.41A3.5,3.5,0,0,0,21.59,6.6Zm-0.81,5.3A1.89,1.89,0,1,1,22.67,10,1.88,1.88,0,0,1,20.78,11.89Z" transform="translate(0 0)"/></svg>