<svg xmlns="http://www.w3.org/2000/svg" viewBox="0 0 21.77 20"><title>менеджер</title><path d="M15.84,7.42a1.93,1.93,0,1,0-.57,1.37A1.93,1.93,0,0,0,15.84,7.42Zm-1.27.67a0.95,0.95,0,1,1,.28-0.67A0.94,0.94,0,0,1,14.57,8.09Z"/><path d="M13.9,6.93a0.49,0.49,0,1,0,.35.14A0.49,0.49,0,0,0,13.9,6.93Z"/><path fill="#ba9c54" d="M20.37,9.68l0.23-.42,0,0-0.21-.08,0.21,0.08C23.38,2,18.43,1,15.63.91h0L14.08,1H14c-3-2.14-5.28.54-5.86,1.34C6.25,0.73,4.78,0,3.64,0A2.66,2.66,0,0,0,1.18,1.42a8.74,8.74,0,0,0-1,3.41,37.29,37.29,0,0,0,.39,9.36c0.1,0.21.27,0.11,0.44-.1C0.64,17.5,2.47,18.4,2.63,18.47a0.23,0.23,0,0,0,.26-0.36,2.34,2.34,0,0,1-.34-1.71,5.21,5.21,0,0,0,2.14,1.89A0.23,0.23,0,0,0,5,18H5l0,0c-3.07-6.26-.5-10,0.85-11.45A5.1,5.1,0,0,0,5.6,9.13,10.37,10.37,0,0,0,8,13.6c2.75,3.44-.28,3.86-0.75,5h0l0,0.46,7.34,1,0.06-.45s0.23-.71.23-0.84a0.22,0.22,0,0,0,0-.1h0c-0.49-1.39-.09-1.81.09-1.93,3.77,2.18,4-.3,3.91-1.22a0.86,0.86,0,0,0,1.16-1c0.85-.18.5-1.19,0.26-1.71C23.22,12.45,21,10.23,20.37,9.68ZM18.44,14.5a1,1,0,0,1-1.41,0,1.07,1.07,0,0,1-.26-0.5c-3.4-.17-3.14-3.07-2.91-4.2a2.39,2.39,0,0,1-.4-4.73l0-.2L14,1.41l1.54-.06L15,5.1l0,0.19a2.39,2.39,0,0,1-.63,4.48c-0.2.88-.59,3.6,2.43,3.78A1.07,1.07,0,0,1,17,13a0.95,0.95,0,0,1,1.41,0A1.09,1.09,0,0,1,18.44,14.5Z"/></svg>