<svg xmlns="http://www.w3.org/2000/svg" viewBox="0 0 19.95 20"><title>дискотека</title><path fill="#ba9c54" d="M3.71,15.49c0.35,0.08.72,0.15,1.1,0.21,0.16-.36.2-0.44,0.51-1-0.26-.48-0.28-0.55-0.62-1.3-0.4-.06-0.78-0.14-1.14-0.22a9.42,9.42,0,0,0-.4.85l0.51,1.41Z"/><path fill="#ba9c54" d="M4.34,7c-0.4.31-.42,0.33-1,0.81a5.72,5.72,0,0,0-.3,1.16,7.24,7.24,0,0,0,.76.26c0.32-.36.4-0.44,0.89-1a5,5,0,0,1,.21-1.07A5.58,5.58,0,0,1,4.34,7Z"/><path fill="#ba9c54" d="M5.49,16.63h0l0.79,0.29h0l0.55,0c0.18-.31.24-0.42,0.56-1-0.29-.44-0.29-0.45-0.7-1.15-0.44,0-.87-0.07-1.29-0.13-0.23.43-.23,0.45-0.51,1,0.24,0.37.31,0.48,0.6,0.86h0Z"/><path fill="#ba9c54" d="M8.82,16c0.29-.45.29-0.45,0.7-1.13-0.25-.43-0.3-0.52-0.69-1.2-0.46,0-.92,0-1.38,0L6.78,14.81C7,15.26,7.1,15.35,7.48,16,7.92,16,8.37,16,8.82,16Z"/><path fill="#ba9c54" d="M3.56,13c0.36,0.08.74,0.16,1.13,0.22,0.24-.42.3-0.51,0.69-1.14A12.52,12.52,0,0,1,5,10.82c-0.37-.06-0.72-0.13-1.05-0.2-0.31.42-.33,0.45-0.74,1.06A11.06,11.06,0,0,0,3.56,13Z"/><path fill="#ba9c54" d="M14,15.7l0.21,0.59a9.8,9.8,0,0,0,.7-1.16,5.17,5.17,0,0,0-.23-1q-0.44.15-1,.27A11.72,11.72,0,0,1,13,15.66a5.52,5.52,0,0,1,.29.9l0.44-.11Z"/><path fill="#ba9c54" d="M15.61,14.74a6.06,6.06,0,0,0,.45-1.32c0-.12,0-0.2,0-0.28l-0.13.37-0.35-1-0.38.17a9.43,9.43,0,0,1-.43,1.37,5.3,5.3,0,0,1,.23,1A4.36,4.36,0,0,0,15.61,14.74Z"/><path fill="#ba9c54" d="M10.8,19.09l0.61-.1a7.25,7.25,0,0,0,.91-0.67v-0.1L11.69,18l0.63-.23V17.68l-0.8.13-0.27,0c-0.31.32-.37,0.37-0.8,0.77a2,2,0,0,1,.16.51Z"/><path fill="#ba9c54" d="M6.74,12.19L7.46,11C7.24,10.53,7.23,10.49,7,9.8L5.86,9.7,5.07,10.78a12.64,12.64,0,0,0,.41,1.29C5.89,12.12,6.31,12.16,6.74,12.19Z"/><path fill="#ba9c54" d="M13.37,17.38l0.31-.85-0.44.11a12,12,0,0,1-.85,1v0.1Z"/><path fill="#ba9c54" d="M8.83,13.55C9.12,13,9.12,13,9.5,12.3c-0.29-.5-0.29-0.5-0.69-1.21-0.43,0-.86,0-1.28,0L6.83,12.25c0.22,0.47.27,0.56,0.63,1.27C7.91,13.54,8.37,13.55,8.83,13.55Z"/><path fill="#ba9c54" d="M11.87,7.24L11,6.42l-0.51.08-0.17,0a4.43,4.43,0,0,1-.06,1l0.78,1,0.24,0L12,8.31A4.82,4.82,0,0,0,11.87,7.24Z"/><path fill="#ba9c54" d="M5,7.14A4.86,4.86,0,0,0,4.8,8.2c0.27,0.06.56,0.12,0.86,0.17l0.82-.95a4.12,4.12,0,0,1,.08-1L6,6.34Z"/><path fill="#ba9c54" d="M10.39,18.58a10.65,10.65,0,0,0,.79-0.77c-0.12-.27-0.15-0.33-0.39-0.8-0.42,0-.84.06-1.26,0.08L8.87,18l0.49,0.69Z"/><path fill="#ba9c54" d="M13.61,14.38c-0.19-.41-0.21-0.45-0.56-1.1l-1,.15-0.32,0c-0.26.53-.28,0.56-0.69,1.28,0.27,0.46.27,0.46,0.59,1l0.31,0,0.93-.15A11.77,11.77,0,0,0,13.61,14.38Z"/><path fill="#ba9c54" d="M15.16,12.59l0.35-.16-0.8-2.23h0a7.77,7.77,0,0,1-.1,1.32A8.62,8.62,0,0,1,15.16,12.59Z"/><path fill="#ba9c54" d="M12.29,8.61l1.31-.47-0.05-.2c-0.35-.33-0.42-0.38-1-0.84-0.19.06-.41,0.12-0.65,0.18a4.83,4.83,0,0,1,.11,1.08Z"/><path fill="#ba9c54" d="M10.67,9.78c-0.39,0-.79.06-1.18,0.07-0.2.44-.24,0.53-0.58,1.19,0.24,0.43.31,0.55,0.69,1.2,0.45,0,.9,0,1.34-0.08,0.23-.51.24-0.55,0.52-1.28Z"/><path fill="#ba9c54" d="M10.8,16.93c0.31-.4.33-0.42,0.78-1.06-0.19-.35-0.26-0.47-0.59-1-0.45,0-.92.07-1.38,0.08-0.26.42-.33,0.55-0.7,1.12l0.62,1C10,17,10.38,17,10.8,16.93Z"/><path fill="#ba9c54" d="M11.85,10.89l-0.29,0c-0.17.48-.2,0.55-0.51,1.28,0.33,0.5.33,0.5,0.73,1.16l0.32,0,1-.15a11.47,11.47,0,0,0,.45-1.34c-0.27-.4-0.33-0.49-0.76-1.08Z"/><path fill="#ba9c54" d="M13,9.54a8,8,0,0,1-.17,1.15c0.32,0.43.33,0.44,0.77,1.08,0.35-.08.67-0.17,1-0.27a7.85,7.85,0,0,0,.1-1.32l0-.06Z"/><path fill="#ba9c54" d="M2.73,14.19C2.5,14.12,2.29,14,2.09,14a4.73,4.73,0,0,0-.18,1c0.14,0.28.21,0.42,0.33,0.62Z"/><path fill="#ba9c54" d="M1.29,14.49a2.6,2.6,0,0,0,.42.29l0.14,0.07a4.62,4.62,0,0,1,.18-1,9.12,9.12,0,0,1-.39-1.39L1.5,12.42a2.7,2.7,0,0,1-.43-0.3,4.36,4.36,0,0,0-.17,1A7.92,7.92,0,0,0,1.29,14.49Z"/><path fill="#ba9c54" d="M2,9.94a2.51,2.51,0,0,1-.4-0.27,5.87,5.87,0,0,0-.54,1,7.47,7.47,0,0,0,0,1.38,2.7,2.7,0,0,0,.43.3l0.14,0.08a7.61,7.61,0,0,1,.53-1,7.72,7.72,0,0,1,0-1.33Z"/><path fill="#ba9c54" d="M3.87,10.55a7.7,7.7,0,0,1-.08-1.26A7.29,7.29,0,0,1,3,9c-0.34.37-.36,0.39-0.8,1a7.65,7.65,0,0,0,0,1.33,8.28,8.28,0,0,0,.88.3C3.38,11.21,3.44,11.14,3.87,10.55Z"/><path fill="#ba9c54" d="M14.37,7.86l0.32-.11,0.13-.36h0l-0.2-.3a8.29,8.29,0,0,0-.89-0.7,0.86,0.86,0,0,1-.21.24,5.56,5.56,0,0,1,.61,1Z"/><path fill="#ba9c54" d="M4.65,5.8c-0.42.23-.46,0.25-1,0.63a5.64,5.64,0,0,0-.69,1,2,2,0,0,0,.33.22L3.35,7.71c0.36-.31.43-0.37,1-0.8A4.49,4.49,0,0,1,4.95,6L4.87,6A1.43,1.43,0,0,1,4.65,5.8Z"/><path fill="#ba9c54" d="M8.74,19.23l0.54-.56L8.78,18,7.64,18c-0.19.3-.19,0.3-0.4,0.67,0.25,0.24.3,0.29,0.62,0.58Z"/><path fill="#ba9c54" d="M5.33,17.74l-0.69-.13h0l-0.26.09a2,2,0,0,0,.08.5,9.38,9.38,0,0,0,.93.7L6.12,19a1.33,1.33,0,0,1,0-.51C5.83,18.25,5.8,18.22,5.33,17.74Z"/><path fill="#ba9c54" d="M7.16,18.61c0.12-.23.15-0.28,0.39-0.68-0.28-.33-0.28-0.34-0.7-0.88L6.34,17l-0.82.3h0c0,0.1-.07.21-0.13,0.42C5.7,18,5.75,18.1,6.2,18.51Z"/><path fill="#ba9c54" d="M3.89,17.88l0,0.1,0.53,0.17a1.36,1.36,0,0,1-.08-0.43Z"/><path fill="#ba9c54" d="M9.28,7.59a10.78,10.78,0,0,1-.42,1.05C9.07,9,9.12,9.13,9.48,9.75c0.39,0,.79,0,1.17-0.07A9.18,9.18,0,0,0,11,8.51l-0.77-1Z"/><path fill="#ba9c54" d="M13.47,6.6c-0.38-.27-0.45-0.31-1-0.67a2.41,2.41,0,0,1-.35.18A4.23,4.23,0,0,1,12.6,7c0.39,0.32.41,0.34,1,.84a3.44,3.44,0,0,0,.5-0.25A5.45,5.45,0,0,0,13.47,6.6Z"/><path fill="#ba9c54" d="M6.51,7.47l-0.81,1a7.74,7.74,0,0,0,.18,1.17L7,9.7c0.29-.45.29-0.45,0.68-1.08a8.32,8.32,0,0,1-.31-1.06Z"/><path fill="#ba9c54" d="M8,6.6C7.82,6.93,7.77,7,7.43,7.51a8.31,8.31,0,0,0,.31,1.06l1,0a11,11,0,0,0,.43-1C9,7.17,9,7.13,8.74,6.61H8Z"/><path fill="#ba9c54" d="M2,16.09a7.82,7.82,0,0,1-.62-1.25l-0.05-.32A7.57,7.57,0,0,1,.89,13.2,7.89,7.89,0,0,1,1,10.39a0.91,0.91,0,0,0,.1.16,5.83,5.83,0,0,1,.54-1A6.42,6.42,0,0,1,2,8.36,0.71,0.71,0,0,1,1.85,8.1L1.9,8A0.69,0.69,0,0,0,2,8.27a8.73,8.73,0,0,1,.83-0.82,5.69,5.69,0,0,1,.69-1A0.51,0.51,0,0,1,3.44,6.2l-0.25.18,0.08-.08,0.2-.15a5.44,5.44,0,0,1,.76-0.63L4.6,5.29a9.54,9.54,0,0,1,1-.4,5.28,5.28,0,0,1,.95-0.34h0a7.23,7.23,0,0,0-.9.33A0.28,0.28,0,0,0,5.73,5c0.38-.14.48-0.17,0.92-0.3h0c-0.29.08-.42,0.13-1,0.32a5.24,5.24,0,0,0-1,.68A1.33,1.33,0,0,0,5,5.89L5,5.93c0.41-.24.48-0.27,1.09-0.59a3.47,3.47,0,0,1,.74-0.5h0a4.37,4.37,0,0,0-.69.48L6.52,5.43,7.32,5h0l-0.84.5a3.13,3.13,0,0,0-.49.8L6.6,6.38l0.76-.74A1.93,1.93,0,0,1,7.67,5h0a2.09,2.09,0,0,0-.28.59l0.48,0c0.19-.26.21-0.3,0.39-0.58h0c-0.11.19-.15,0.25-0.4,0.61a3.53,3.53,0,0,0,.1.83H8.73A4.73,4.73,0,0,0,9,5.71a4.05,4.05,0,0,1-.28-0.62h0A4.71,4.71,0,0,0,9,5.68l0.52,0a1.61,1.61,0,0,0-.16-0.57h0a2,2,0,0,1,.17.61C9.8,5.95,9.85,6,10.25,6.44l0.16,0,0.49-.08a2.89,2.89,0,0,0-.38-0.81L9.79,5h0l0.7,0.46,0.37-.1a2.79,2.79,0,0,0-.56-0.44h0a4.44,4.44,0,0,1,.59.47c0.41,0.23.44,0.25,1,.63a2.4,2.4,0,0,0,.34-0.17,4.89,4.89,0,0,0-.88-0.71C11.11,5,11,5,10.66,4.86h0l0.74,0.28A0.49,0.49,0,0,0,11.54,5a4.47,4.47,0,0,0-.61-0.27h0L11.6,5a11.13,11.13,0,0,1,1.1.46,0.32,0.32,0,0,0,0-.17l0.1,0.06a0.33,0.33,0,0,1,0,.17,6.2,6.2,0,0,1,.92.81,8.11,8.11,0,0,1,.89.69,0.47,0.47,0,0,0,0-.1l0.27,0.33,0.06-.17A8,8,0,0,0,10.6,4.26a0,0,0,0,0,0,0V4a0,0,0,0,0,0,0H6.7a0,0,0,0,0,0,0v0.2a0,0,0,0,0,0,0A8,8,0,0,0,4.15,5.4l-0.39.26a7.65,7.65,0,0,0-.95.86l-0.08.11a8,8,0,0,0-.93,9.51ZM11.28,4.63l0.06,0L11,4.57h0ZM6.7,4.41h0Z"/><path fill="#ba9c54" d="M16.47,11.88s0,0.08,0,.13a7.78,7.78,0,0,1-.87,3.59l-0.16.15a8.45,8.45,0,0,1-.76,1.1,2.48,2.48,0,0,1-.18.3l0.07,0.19A8,8,0,0,0,16.63,12q0-.26,0-0.52Z"/><path fill="#ba9c54" d="M9.05,19.64l-0.32-.36-0.86,0a1.81,1.81,0,0,0-.19.35,2.59,2.59,0,0,0,.49.22h0.5A2.55,2.55,0,0,0,9.05,19.64Z"/><path fill="#ba9c54" d="M12.74,18.63L13,18.5l-0.11.07-0.24.11a7.18,7.18,0,0,1-1,.54l-0.15.06-0.45.12a4.2,4.2,0,0,1-.55.2h0l0.55-.21A0.75,0.75,0,0,0,11.36,19l-0.6.1-0.2,0a6.89,6.89,0,0,1-.73.43,0.17,0.17,0,0,1-.09.18h0c0.05,0,.05,0,0.07-0.16l-0.68,0a2.17,2.17,0,0,1-.39.2H8.13a2.42,2.42,0,0,1-.48-0.21L7,19.56a0.24,0.24,0,0,0,.14.14H7.08A0.51,0.51,0,0,1,7,19.54a6.49,6.49,0,0,1-.79-0.45L5.45,19a1.06,1.06,0,0,0,.37.36A7.83,7.83,0,0,1,4,18.3L3.81,18.1l-0.08.22a8,8,0,0,0,9.5.23l-0.31-.11Z"/><path fill="#ba9c54" d="M9.82,3.59H7.46a0.34,0.34,0,0,0-.32.24h3A0.34,0.34,0,0,0,9.82,3.59Z"/><path fill="#ba9c54" d="M9.44,3.44v0a0.15,0.15,0,0,0-.15-0.15H8.91v-3a0.27,0.27,0,1,0-.55,0v3H8a0.15,0.15,0,0,0-.15.15v0H9.44Z"/><polygon fill="#ba9c54" points="16.97 7.87 15.89 4.89 15.04 7.23 14.98 7.41 14.93 7.56 14.81 7.87 14.5 7.99 13.65 8.3 12.41 8.74 11.83 8.95 13.08 9.4 13.09 9.4 14.39 9.88 14.81 10.03 14.86 10.14 15.65 12.36 15.69 12.46 15.89 13.01 15.96 12.83 15.96 12.83 16.46 11.45 16.58 11.1 16.97 10.03 19.95 8.95 16.97 7.87"/><polygon fill="#ba9c54" points="4.3 17.56 5.6 17.09 5.95 16.97 5.93 16.96 5.92 16.96 3.76 16.18 3.59 15.7 3.59 15.7 3.32 14.95 3.32 14.95 3.32 14.95 3.32 14.95 3.32 14.95 3.08 14.3 3.08 14.3 3.06 14.22 2.97 13.99 2.89 14.24 2.35 15.73 2.19 16.18 2.04 16.23 1.89 16.29 0 16.97 2.19 17.76 2.97 19.94 3.6 18.21 3.7 17.94 3.7 17.92 3.76 17.76 4.3 17.56"/><polygon fill="#ba9c54" points="14.45 17.48 14.39 17.31 14.39 17.3 14.31 17.09 14.13 16.6 14.07 16.42 14.04 16.35 13.98 16.18 13.91 16.39 13.91 16.39 13.87 16.48 13.5 17.51 12.42 17.9 12.34 17.93 12.18 17.99 12.34 18.05 12.41 18.08 12.74 18.19 13.04 18.3 13.39 18.43 13.5 18.47 13.98 19.8 14.46 18.47 15.79 17.99 14.46 17.51 14.45 17.48"/></svg>